HIERARCHY
ROOT Hips
{
	OFFSET -3.958830 18.904000 13.208200
	CHANNELS 6 Xposition Yposition Zposition Zrotation Yrotation Xrotation 
	JOINT LHipJoint
	{
		OFFSET 0.000000 0.000000 0.000000
		CHANNELS 3 Zrotation Yrotation Xrotation
		JOINT LeftUpLeg
		{
			OFFSET 1.800000 -1.400000 0.085000
			CHANNELS 3 Zrotation Yrotation Xrotation
			JOINT LeftLeg
			{
				OFFSET 2.215000 -6.000000 0.000000
				CHANNELS 3 Zrotation Yrotation Xrotation
				JOINT LeftFoot
				{
					OFFSET 2.500000 -6.900000 0.000000
					CHANNELS 3 Zrotation Yrotation Xrotation
					JOINT LeftToeBase
					{
						OFFSET 0.200000 -0.500000 1.950000
						CHANNELS 3 Zrotation Yrotation Xrotation
						End Site
						{
							OFFSET 0.000000 0.000000 0.000000
						}
					}
				}
			}
		}
	}
	JOINT RHipJoint
	{
		OFFSET 0.000000 0.000000 0.000000
		CHANNELS 3 Zrotation Yrotation Xrotation
		JOINT RightUpLeg
		{
			OFFSET -1.800000 -1.400000 0.085000
			CHANNELS 3 Zrotation Yrotation Xrotation
			JOINT RightLeg
			{
				OFFSET -2.215000 -6.000000 0.000000
				CHANNELS 3 Zrotation Yrotation Xrotation
				JOINT RightFoot
				{
					OFFSET -2.500000 -6.900000 0.000000
					CHANNELS 3 Zrotation Yrotation Xrotation
					JOINT RightToeBase
					{
						OFFSET -0.200000 -0.500000 1.950000
						CHANNELS 3 Zrotation Yrotation Xrotation
						End Site
						{
							OFFSET 0.000000 0.000000 0.000000
						}
					}
				}
			}
		}
	}
	JOINT LowerBack
	{
		OFFSET 0.000000 0.000000 0.000000
		CHANNELS 3 Zrotation Yrotation Xrotation
		JOINT Spine
		{
			OFFSET -0.087000 1.940000 -0.288900
			CHANNELS 3 Zrotation Yrotation Xrotation
			JOINT Spine1
			{
				OFFSET 0.000000 1.950000 0.060000
				CHANNELS 3 Zrotation Yrotation Xrotation
				JOINT Neck
				{
					OFFSET 0.000000 0.000000 0.000000
					CHANNELS 3 Zrotation Yrotation Xrotation
					JOINT Neck1
					{
						OFFSET 0.000000 1.600000 0.340000
						CHANNELS 3 Zrotation Yrotation Xrotation
						JOINT Head
						{
							OFFSET 0.000000 1.667000 -0.240000
							CHANNELS 3 Zrotation Yrotation Xrotation
							End Site
							{
								OFFSET 0.000000 0.000000 0.000000
							}
						}
					}
				}
				JOINT LeftShoulder
				{
					OFFSET 0.000000 0.000000 0.000000
					CHANNELS 3 Zrotation Yrotation Xrotation
					JOINT LeftArm
					{
						OFFSET 2.700000 1.550000 -0.730000
						CHANNELS 3 Zrotation Yrotation Xrotation
						JOINT LeftForeArm
						{
							OFFSET 5.450000 0.000000 0.000000
							CHANNELS 3 Zrotation Yrotation Xrotation
							JOINT LeftHand
							{
								OFFSET 3.450000 0.000000 0.000000
								CHANNELS 3 Zrotation Yrotation Xrotation
								JOINT LeftHandIndex1
								{
									OFFSET 0.750000 0.000000 0.000000
									CHANNELS 3 Zrotation Yrotation Xrotation
									End Site
									{
										OFFSET 0.000000 0.000000 0.000000
									}
								}
							}
						}
					}
				}
				JOINT RightShoulder
				{
					OFFSET 0.000000 0.000000 0.000000
					CHANNELS 3 Zrotation Yrotation Xrotation
					JOINT RightArm
					{
						OFFSET -2.700000 1.550000 -0.730000
						CHANNELS 3 Zrotation Yrotation Xrotation
						JOINT RightForeArm
						{
							OFFSET -5.450000 0.000000 0.000000
							CHANNELS 3 Zrotation Yrotation Xrotation
							JOINT RightHand
							{
								OFFSET -3.450000 0.000000 0.000000
								CHANNELS 3 Zrotation Yrotation Xrotation
								JOINT RightHandIndex1
								{
									OFFSET -0.750000 0.000000 0.000000
									CHANNELS 3 Zrotation Yrotation Xrotation
									End Site
									{
										OFFSET 0.000000 0.000000 0.000000
									}
								}
							}
						}
					}
				}
			}
		}
	}
}
MOTION
Frames: 14
Frame Time: 0.016667
0.852000 13.612750 -0.322730 -65.619041 20.182294 -47.223581 -16.225866 12.724514 5.131773 8.445564 -7.329303 -35.579268 -29.034997 8.563287 11.934848 0.226076 5.817624 2.358867 0.164400 -0.037110 0.403870 17.602463 -7.725253 3.378168 9.470377 9.037875 -28.341956 -44.833593 9.442221 25.362384 -1.165150 -6.097064 2.038143 -0.125240 -0.020880 0.268140 -0.770067 -7.251318 -8.700843 -13.214395 13.779649 47.312358 14.234302 8.726123 17.893837 1.299187 7.891534 -16.073226 11.171328 -2.342291 46.162919 1.435050 4.082730 -9.438690 -9.456501 -24.693734 10.501988 -18.139587 -12.828300 1.708579 6.667174 5.053697 -0.379505 -3.858159 2.731138 0.558930 -0.088700 0.315370 -0.037500 5.795261 23.687022 12.525181 15.582831 -9.447211 -19.248391 -117.012744 46.040668 -85.611874 2.355594 -1.213652 -0.075320 0.032280 -0.038960 -0.131510 
0.932190 13.594610 -0.246190 -64.946199 18.908810 -48.954511 -16.242598 13.067979 4.775233 7.469522 -6.015718 -29.772822 -27.641089 6.790929 6.757089 0.170168 5.251853 2.570030 0.194720 -0.016410 0.450910 17.526228 -7.798892 3.364432 9.318898 8.843509 -24.286269 -51.215531 9.044104 18.954100 -1.284432 -6.240016 2.006683 -0.127320 -0.078820 0.251410 -0.679323 -7.454532 -8.635079 -12.789849 14.303534 46.877024 13.872372 9.653033 18.659091 1.680992 7.825800 -16.699934 10.883341 -2.074053 48.112899 1.320040 4.463330 -9.033080 -10.823301 -25.699173 11.071327 -18.266725 -11.294538 1.076089 7.356376 3.680539 -0.441357 -3.762785 2.747989 0.592430 -0.129320 0.347190 -0.042870 6.408375 25.109534 13.435764 16.441273 -11.179200 -19.689262 -119.451551 46.634877 -90.969444 2.404992 -1.240152 -0.066640 0.013750 -0.071750 -0.150970 
0.980910 13.544770 -0.194640 -68.616333 21.593713 -51.408010 -16.147579 13.352925 4.586477 4.411524 -6.810963 -28.197690 -23.938847 6.732288 8.948985 0.047756 4.758518 2.761200 0.210200 0.044390 0.432700 17.537834 -8.206476 3.265131 7.541439 7.501509 -24.234871 -52.849385 8.909834 19.200282 -1.358275 -6.541782 1.920220 -0.086910 -0.061120 0.249810 -0.843177 -7.296578 -8.471249 -10.009706 11.279807 48.225667 12.260721 7.724690 19.270464 1.915705 8.495435 -16.143734 12.176391 -2.917897 47.483597 0.855700 4.026750 -10.744800 -11.186047 -25.403974 10.462914 -16.611048 -12.250835 0.912104 7.251622 3.700039 -0.515127 -3.800669 2.705111 0.570030 -0.115440 0.357550 -0.023480 5.900124 23.577299 12.916066 16.695236 -9.762483 -18.917058 -121.523117 46.182401 -94.008647 2.378288 -1.292688 -0.060090 0.053200 -0.076470 -0.125820 
1.018260 13.564690 -0.139690 -69.519777 22.236383 -53.276667 -16.153121 13.821641 4.202487 1.926437 -5.932014 -26.031647 -17.948697 6.420907 10.411159 -0.087431 4.057419 3.002457 0.254390 0.082730 0.490610 17.485005 -8.324651 3.354386 6.848526 7.825460 -24.729464 -52.127485 9.860533 21.703959 -1.397027 -6.708786 1.841484 -0.075550 -0.117390 0.253920 -0.787570 -7.603530 -8.293063 -10.326639 11.295398 48.134207 12.531646 7.269127 20.471231 2.106033 8.064411 -16.398363 11.357099 -2.329060 48.512617 -0.317250 4.687150 -10.425720 -10.602728 -25.757989 10.841103 -16.695604 -11.860988 0.937891 6.863240 3.770356 -0.471293 -3.753596 2.739479 0.564020 -0.143770 0.382080 -0.030330 4.827750 24.325048 13.135038 15.705428 -8.624138 -18.609966 -123.099047 45.686170 -96.320224 2.402438 -1.375503 -0.028640 0.014790 -0.114380 -0.132690 
1.112630 13.539400 -0.072560 -73.996694 22.597925 -58.086188 -16.092959 14.208599 3.981328 2.154743 -4.644859 -22.764691 -15.789637 6.497461 11.430047 -0.051927 4.030628 2.985167 0.317600 0.150320 0.534230 17.468406 -8.576225 3.345457 7.423133 7.409974 -22.882692 -50.078401 11.083316 27.958087 -1.550716 -7.307346 1.630891 -0.070570 -0.183240 0.339620 -0.904952 -7.625767 -8.205246 -5.835588 8.099760 50.815091 10.249630 5.896215 21.691868 3.311581 8.030187 -16.537561 11.188634 -1.827683 48.968690 -3.360990 5.849200 -11.072880 -11.653168 -27.104049 11.151807 -14.645468 -12.024077 0.712195 7.160359 5.819323 -0.440423 -3.794723 2.812043 0.535450 -0.147400 0.435150 -0.029360 3.265218 25.064592 12.956687 14.719892 -8.269706 -19.329881 -121.472970 45.577541 -94.303182 2.393524 -1.430615 0.068060 -0.075230 -0.138990 -0.121620 
1.149260 13.515540 -0.020610 -72.472553 19.820550 -59.365828 -16.070492 14.117313 3.732674 3.374870 -3.242814 -20.928034 -16.180814 6.833260 10.809692 0.002137 4.218430 2.924353 0.255050 0.084870 0.508130 17.525450 -8.415725 3.668699 8.558674 9.932693 -23.621742 -47.131303 12.645704 33.392068 -1.596627 -7.679998 1.527302 -0.116430 -0.160900 0.350410 -1.092851 -7.183871 -8.332634 -3.765538 8.259610 51.624790 7.902045 7.151265 21.765320 4.235852 7.746270 -16.977722 10.844055 -0.613734 49.865857 -5.827650 7.861610 -9.032940 -12.389198 -27.650459 11.696924 -13.341879 -10.860059 0.645509 7.107773 5.707409 -0.398416 -3.831271 2.784937 0.510030 -0.107040 0.417060 -0.054050 2.119187 26.391126 12.933797 12.765783 -7.605772 -19.761659 -117.000565 47.759115 -89.447057 2.412303 -1.244903 0.066110 -0.086300 -0.101960 -0.123230 
1.167290 13.457820 0.001440 -69.743164 16.960905 -60.195878 -15.978540 14.048961 3.498395 3.880381 -2.141242 -19.637289 -15.193874 7.017727 11.066226 -0.069391 4.286793 2.883919 0.178400 -0.046340 0.448220 17.619924 -8.434551 3.955091 9.190577 11.833231 -24.236026 -41.347640 12.155644 36.733500 -1.432619 -7.336313 1.612882 -0.161000 -0.130130 0.359020 -1.430072 -6.516385 -8.425203 -1.625933 7.773665 52.872234 4.796550 8.098020 21.183080 5.015212 5.948996 -17.460795 7.169092 1.261074 50.896758 -5.963300 8.026480 -6.246860 -13.319136 -27.884945 12.281459 -12.468849 -9.134904 0.922471 6.207292 5.870660 -0.411713 -3.851488 2.777731 0.536930 -0.084900 0.358650 -0.100110 1.739107 28.536583 12.550285 7.458987 -7.374396 -20.076949 -111.682472 51.231101 -82.889076 2.407769 -0.925882 0.019460 -0.111020 -0.013380 -0.153620 
1.181750 13.351160 -0.008120 -71.063166 13.962262 -62.426678 -15.651364 13.954056 3.396379 6.369188 -1.340047 -19.895423 -13.887200 7.235704 12.892711 -0.073405 4.347981 2.826765 0.131450 -0.129050 0.438720 17.828484 -8.991295 4.019036 7.035119 12.199654 -26.356435 -22.139483 5.239526 43.292602 -0.949356 -5.762849 2.077318 -0.233340 -0.158430 0.369130 -2.274029 -5.040677 -8.413364 6.518273 2.266633 56.178182 -0.828671 6.439776 19.197175 6.309188 4.264343 -18.343591 3.725800 3.216813 52.983614 -6.761330 8.836610 -4.526250 -14.026890 -28.689012 13.381373 -11.899990 -7.009050 1.132400 4.979943 5.077911 -0.379087 -3.756024 2.783384 0.572240 -0.118350 0.374990 -0.138000 0.368414 29.637301 11.527473 2.668547 -6.300583 -20.102999 -107.804704 54.625211 -77.553597 2.425635 -0.584787 0.031550 -0.145670 0.022900 -0.161680 
1.154540 13.267690 0.008510 -70.360878 14.006727 -62.700973 -15.575183 13.856997 3.431303 5.779010 -1.741684 -21.125462 -13.783769 7.553643 14.972864 -0.101049 4.460297 2.781846 0.134840 -0.142480 0.456310 17.842720 -9.110141 3.947423 -2.431934 13.085608 -29.164523 2.737846 -5.923185 45.734146 -0.789606 -5.831805 2.011982 -0.232550 -0.167040 0.365820 -2.436998 -4.629123 -8.387545 7.659482 1.250317 56.108943 -2.444846 5.760029 19.073062 7.062714 3.797393 -18.040139 3.135165 3.391118 52.769241 -8.340310 9.038840 -5.945510 -12.676855 -28.442549 13.898529 -12.873581 -6.783355 1.488629 4.658928 4.645940 -0.355083 -3.718055 2.776805 0.603650 -0.128000 0.379020 -0.144660 -2.348632 29.797109 10.039295 -1.203650 -4.074819 -20.391566 -101.934883 58.023602 -70.020805 2.327015 -0.290222 0.012780 -0.126030 0.031900 -0.180820 
1.153000 13.172890 0.086080 -70.034930 17.010361 -61.838141 -15.546613 13.515512 3.539131 2.185027 -3.479835 -22.933640 -13.490311 7.641504 17.465868 -0.189007 4.488435 2.777879 0.150380 -0.138090 0.444100 17.877576 -9.048520 3.962676 -10.592445 11.733305 -29.877606 18.002868 -11.398826 39.346830 -0.858084 -6.501553 1.726077 -0.177400 -0.115950 0.376190 -2.564332 -4.298246 -8.448887 6.657151 0.514754 53.261441 -3.518539 4.040932 20.203652 7.150426 2.872931 -16.963078 2.031454 4.550865 50.536817 -7.387660 9.008720 -7.179430 -11.156507 -27.215997 13.572519 -13.665507 -7.060091 1.801643 4.402592 4.199017 -0.439741 -3.767627 2.809911 0.603280 -0.095680 0.333820 -0.139330 -3.884615 28.458955 8.903703 -4.219740 0.435653 -18.595413 -100.426019 57.656243 -68.079704 2.189767 -0.318568 -0.031820 -0.100650 0.063140 -0.194250 
1.132870 13.104270 0.159720 -69.878826 18.222332 -60.409714 -15.551386 12.971268 3.573941 0.364375 -4.912020 -26.513960 -12.454534 8.097532 21.267803 -0.222830 4.757811 2.742891 0.054870 -0.247100 0.362170 17.970931 -8.605448 4.420887 -16.059793 11.908070 -32.779242 28.776317 -14.269502 35.273123 -0.988613 -7.303086 1.502170 -0.186170 0.060660 0.320270 -2.696250 -4.016034 -8.735373 6.629844 0.015003 50.567795 -4.166948 3.237386 19.764220 7.176863 2.692900 -16.805307 2.328896 4.974739 50.148419 -5.025500 8.510770 -3.444720 -10.599308 -26.928447 13.828298 -14.874552 -6.220525 2.069428 4.325855 4.344456 -0.436209 -3.874050 2.711523 0.566490 0.001890 0.219260 -0.119400 -4.290331 28.207443 8.316796 -7.240100 4.287563 -16.484027 -102.058965 55.397813 -67.526146 2.170704 -0.439786 -0.142720 0.021230 0.122810 -0.179830 
1.134030 13.056090 0.186420 -68.708090 17.315970 -58.991026 -15.458995 12.454529 3.545641 0.179113 -5.341301 -29.181086 -11.726143 8.524977 23.774170 -0.216797 4.975716 2.678314 -0.024170 -0.307020 0.273570 18.138353 -8.428436 4.803145 -18.215876 12.784787 -35.177052 35.057110 -15.057268 32.374254 -1.066163 -7.555825 1.470381 -0.207820 0.161620 0.262010 -3.082310 -3.229161 -8.962393 8.406510 -1.077448 49.076263 -6.528750 2.778877 19.222072 7.400176 2.177066 -17.348407 1.894664 5.913124 51.450214 -1.837940 8.064170 -1.052760 -9.023419 -27.430970 14.909685 -17.092545 -4.236840 2.189016 4.157056 4.195880 -0.369283 -3.887167 2.644516 0.561150 0.036940 0.165950 -0.114610 -6.106638 29.052993 7.829526 -9.230819 8.170919 -15.266276 -104.712398 53.439919 -68.043835 2.236697 -0.506400 -0.203940 0.107840 0.172950 -0.156820 
1.183150 12.949130 0.212750 -65.822119 15.398693 -57.399670 -15.310442 12.069854 3.477446 -1.772552 -5.432826 -30.914330 -8.840410 8.059789 25.466122 -0.193996 4.774688 2.758170 -0.095280 -0.349320 0.141960 18.320365 -8.521653 5.048165 -18.701438 13.659528 -36.245569 38.808447 -13.928516 28.329646 -1.004097 -7.306147 1.581287 -0.241570 0.267600 0.262800 -3.578675 -2.205004 -9.082704 11.327232 -2.065362 47.168547 -9.939399 2.903143 18.541595 7.910298 1.093877 -17.923225 0.140248 7.293477 52.788567 1.477370 6.942500 4.291800 -9.624871 -28.208313 16.094327 -18.935176 -1.541908 1.961581 5.108311 3.145292 -0.268857 -3.892256 2.728245 0.477730 0.098310 0.102200 -0.091840 -6.362429 30.978648 6.951791 -11.716848 11.314847 -14.620584 -103.840224 53.957289 -65.040008 2.298728 -0.465959 -0.189190 0.102620 0.215060 -0.087530 
1.245870 12.845640 0.234930 -59.890096 13.979895 -55.436627 -15.281332 11.743187 3.418626 -4.607142 -5.649027 -31.340543 -7.377688 7.597104 25.166698 -0.201833 4.488802 2.863986 -0.148320 -0.363950 -0.022830 18.392883 -8.366877 5.317182 -22.012656 14.126146 -35.582261 45.262703 -11.434098 21.376683 -0.970738 -7.114395 1.644216 -0.234370 0.403560 0.284200 -3.720384 -1.742984 -9.204903 9.704185 -0.121731 45.760147 -11.629353 4.376344 18.934407 7.962569 -0.369951 -18.084926 -2.162063 9.668713 52.130829 7.362960 5.025080 7.533900 -9.240646 -28.889852 17.236231 -21.596191 0.883859 1.667563 6.543863 1.809987 -0.249707 -3.915092 2.854333 0.405350 0.162010 0.031520 -0.054550 -6.722712 33.888034 5.744574 -14.024269 14.296520 -15.089175 -102.189198 55.643747 -62.274770 2.363248 -0.381655 -0.187210 0.101870 0.273150 -0.007220 
